<svg width="50" height="50" viewBox="0 0 50 50" fill="none" xmlns="http://www.w3.org/2000/svg">
<path d="M8.33301 39.5833V10.4167C8.33301 8.11548 10.1985 6.25 12.4997 6.25H40.4163C41.1068 6.25 41.6663 6.80965 41.6663 7.5V34.8215" stroke="#E7E6E6" stroke-linecap="round"/>
<path d="M20.833 29.1667C20.833 29.1667 22.708 22.6717 27.083 18.75" stroke="#E7E6E6" stroke-linecap="round" stroke-linejoin="round"/>
<path d="M26.6709 25.8842L26.3907 25.9107C22.8659 26.2417 19.7267 23.6542 19.3791 20.131C19.0314 16.6079 21.6069 13.4833 25.1317 13.1521L31.3517 12.5677C31.7509 12.5302 32.1061 12.8231 32.1455 13.222L32.6761 18.5989C33.039 22.2767 30.3503 25.5386 26.6709 25.8842Z" stroke="#E7E6E6" stroke-linecap="round" stroke-linejoin="round"/>
<path d="M12.5 35.4165H41.6667" stroke="#E7E6E6" stroke-linecap="round"/>
<path d="M12.5 43.75H41.6667" stroke="#E7E6E6" stroke-linecap="round"/>
<path d="M12.4997 43.7498C10.1985 43.7498 8.33301 41.8844 8.33301 39.5832C8.33301 37.2819 10.1985 35.4165 12.4997 35.4165" stroke="#E7E6E6" stroke-linecap="round" stroke-linejoin="round"/>
</svg>
