<svg width="50" height="50" viewBox="0 0 50 50" fill="none" xmlns="http://www.w3.org/2000/svg">
<path d="M34.3178 41.6668H8.54199C7.85164 41.6668 7.29199 41.1072 7.29199 40.4168V20.0002C7.29199 19.3098 7.85164 18.7502 8.54199 18.7502H14.3079C15.7715 18.7502 17.1277 17.9822 17.8807 16.7272L23.5274 7.316C24.746 5.28532 27.6157 5.09227 29.0951 6.94153C29.7924 7.81317 30.0172 8.97171 29.6964 10.0409L27.5664 17.141C27.3257 17.943 27.9264 18.7502 28.7637 18.7502H38.2951C41.0424 18.7502 43.0378 21.3627 42.3149 24.0131L38.3376 38.5964C37.8432 40.4093 36.1968 41.6668 34.3178 41.6668Z" stroke="#E7E6E6" stroke-linecap="round"/>
<path d="M14.583 41.6667V18.75" stroke="#E7E6E6" stroke-linecap="round" stroke-linejoin="round"/>
</svg>
