<svg width="50" height="50" viewBox="0 0 50 50" fill="none" xmlns="http://www.w3.org/2000/svg">
<path d="M2.08301 41.6667V39.5833C2.08301 31.5292 8.6122 25 16.6663 25C24.7205 25 31.2497 31.5292 31.2497 39.5833V41.6667" stroke="#E7E6E6" stroke-linecap="round"/>
<path d="M27.083 29.1667C27.083 23.4138 31.7468 18.75 37.4997 18.75C43.2526 18.75 47.9163 23.4138 47.9163 29.1667V30.2083" stroke="#E7E6E6" stroke-linecap="round"/>
<path d="M16.6663 25.0002C21.2686 25.0002 24.9997 21.2691 24.9997 16.6668C24.9997 12.0645 21.2686 8.3335 16.6663 8.3335C12.064 8.3335 8.33301 12.0645 8.33301 16.6668C8.33301 21.2691 12.064 25.0002 16.6663 25.0002Z" stroke="#E7E6E6" stroke-linecap="round" stroke-linejoin="round"/>
<path d="M37.5 18.75C40.9519 18.75 43.75 15.9518 43.75 12.5C43.75 9.04823 40.9519 6.25 37.5 6.25C34.0481 6.25 31.25 9.04823 31.25 12.5C31.25 15.9518 34.0481 18.75 37.5 18.75Z" stroke="#E7E6E6" stroke-linecap="round" stroke-linejoin="round"/>
</svg>
