<svg width="64" height="64" viewBox="0 0 64 64" fill="none" xmlns="http://www.w3.org/2000/svg">
<g id="Frame">
<path id="Vector" d="M33.8281 5.33334V45.3333" stroke="white" stroke-width="1.33333" stroke-linecap="round" stroke-linejoin="round"/>
<path id="Vector_2" d="M33.8281 37.3333L48.4948 32V22.6667" stroke="white" stroke-width="1.33333" stroke-linecap="round" stroke-linejoin="round"/>
<path id="Vector_3" d="M33.8268 42.6667L19.1602 38.6667V30.6667" stroke="white" stroke-width="1.33333" stroke-linecap="round" stroke-linejoin="round"/>
<path id="Vector_4" d="M33.8268 58.6667C37.5087 58.6667 40.4935 55.6819 40.4935 52C40.4935 48.3181 37.5087 45.3333 33.8268 45.3333C30.145 45.3333 27.1602 48.3181 27.1602 52C27.1602 55.6819 30.145 58.6667 33.8268 58.6667Z" stroke="white" stroke-width="1.33333" stroke-linecap="round" stroke-linejoin="round"/>
<path id="Vector_5" d="M44.4941 14.6667V22.6667H52.4941V14.6667H44.4941Z" stroke="white" stroke-width="1.33333" stroke-linecap="round" stroke-linejoin="round"/>
<path id="Vector_6" d="M28.4941 10.6667L33.8275 5.33333L39.1608 10.6667" stroke="white" stroke-width="1.33333" stroke-linecap="round" stroke-linejoin="round"/>
<path id="Vector_7" d="M19.1615 29.3333C22.107 29.3333 24.4948 26.9456 24.4948 24C24.4948 21.0545 22.107 18.6667 19.1615 18.6667C16.2159 18.6667 13.8281 21.0545 13.8281 24C13.8281 26.9456 16.2159 29.3333 19.1615 29.3333Z" stroke="white" stroke-width="1.33333" stroke-linecap="round" stroke-linejoin="round"/>
</g>
</svg>
