<svg width="17" height="17" viewBox="0 0 17 17" fill="none" xmlns="http://www.w3.org/2000/svg">
<path d="M8.16953 2.06C6.90373 2.06 5.66636 2.43535 4.61388 3.13859C3.56141 3.84183 2.74111 4.84138 2.25671 6.01082C1.7723 7.18027 1.64556 8.4671 1.89251 9.70858C2.13945 10.9501 2.74899 12.0904 3.64405 12.9855C4.53911 13.8805 5.67948 14.4901 6.92096 14.737C8.16243 14.984 9.44926 14.8572 10.6187 14.3728C11.7882 13.8884 12.7877 13.0681 13.4909 12.0156C14.1942 10.9632 14.5695 9.7258 14.5695 8.46C14.5645 6.76415 13.8886 5.1392 12.6895 3.94005C11.4903 2.7409 9.86538 2.06501 8.16953 2.06ZM2.56953 8.46C2.56692 7.0458 3.10316 5.68373 4.06915 4.65086C5.03514 3.61799 6.35833 2.99192 7.76953 2.9V14.06C6.35698 13.9526 5.03691 13.3163 4.07296 12.2782C3.10901 11.2401 2.57213 9.87663 2.56953 8.46Z" fill="#333333"/>
</svg>
