<svg width="64" height="64" viewBox="0 0 64 64" fill="none" xmlns="http://www.w3.org/2000/svg">
<g id="Frame">
<path id="Vector" d="M53.3346 29.3333C53.3346 17.5513 43.7834 8 32.0013 8C20.2192 8 10.668 17.5513 10.668 29.3333" stroke="white" stroke-width="1.33333" stroke-linecap="round" stroke-linejoin="round"/>
<path id="Vector_2" d="M5.33203 41.1691V36.1643C5.33203 33.7168 6.9976 31.5837 9.37184 30.9901L14.0106 29.8304C15.0205 29.5779 15.9987 30.3416 15.9987 31.3827V45.9507C15.9987 46.9917 15.0205 47.7555 14.0106 47.5029L9.37184 46.3432C6.9976 45.7496 5.33203 43.6165 5.33203 41.1691Z" stroke="white" stroke-width="1.33333"/>
<path id="Vector_3" d="M58.6667 41.1691V36.1643C58.6667 33.7168 57.0011 31.5837 54.6269 30.9901L49.988 29.8304C48.9781 29.5779 48 30.3416 48 31.3827V45.9507C48 46.9917 48.9781 47.7555 49.988 47.5029L54.6269 46.3432C57.0011 45.7496 58.6667 43.6165 58.6667 41.1691Z" stroke="white" stroke-width="1.33333"/>
<path id="Vector_4" d="M53.3346 48V49.3333C53.3346 52.2789 50.9469 54.6667 48.0013 54.6667H38.668" stroke="white" stroke-width="1.33333"/>
<path id="Vector_5" d="M36 58.6667H28C25.7909 58.6667 24 56.8757 24 54.6667C24 52.4576 25.7909 50.6667 28 50.6667H36C38.2091 50.6667 40 52.4576 40 54.6667C40 56.8757 38.2091 58.6667 36 58.6667Z" stroke="white" stroke-width="1.33333"/>
</g>
</svg>
