<svg width="55" height="56" viewBox="0 0 55 56" fill="none" xmlns="http://www.w3.org/2000/svg">
<path d="M28.0007 39.6131C33.8916 39.6131 38.6673 34.8374 38.6673 28.9465C38.6673 23.0554 33.8916 18.2798 28.0007 18.2798C22.1096 18.2798 17.334 23.0554 17.334 28.9465C17.334 34.8374 22.1096 39.6131 28.0007 39.6131Z" stroke="#E7E6E6" stroke-width="1.33333" stroke-linecap="round" stroke-linejoin="round"/>
<path d="M4 39.6132V18.2799C4 10.9161 9.96955 4.94653 17.3333 4.94653H38.6667C46.0304 4.94653 52 10.9161 52 18.2799V39.6132C52 46.9769 46.0304 52.9465 38.6667 52.9465H17.3333C9.96955 52.9465 4 46.9769 4 39.6132Z" stroke="#E7E6E6" stroke-width="1.33333"/>
<path d="M42.666 14.3065L42.6927 14.2769" stroke="#E7E6E6" stroke-width="1.33333" stroke-linecap="round" stroke-linejoin="round"/>
</svg>
