<svg width="17" height="16" viewBox="0 0 17 16" fill="none" xmlns="http://www.w3.org/2000/svg">
<g clip-path="url(#clip0_511_2898)">
<path d="M8.50065 10.6617C9.97338 10.6617 11.1673 9.46777 11.1673 7.99504C11.1673 6.52228 9.97338 5.32837 8.50065 5.32837C7.02789 5.32837 5.83398 6.52228 5.83398 7.99504C5.83398 9.46777 7.02789 10.6617 8.50065 10.6617Z" stroke="#E7E6E6" stroke-width="0.666667" stroke-linecap="round" stroke-linejoin="round"/>
<path d="M2.5 10.6618V5.32845C2.5 3.4875 3.99239 1.99512 5.83333 1.99512H11.1667C13.0076 1.99512 14.5 3.4875 14.5 5.32845V10.6618C14.5 12.5027 13.0076 13.9951 11.1667 13.9951H5.83333C3.99239 13.9951 2.5 12.5027 2.5 10.6618Z" stroke="#E7E6E6" stroke-width="0.666667"/>
<path d="M12.166 4.33504L12.1727 4.32764" stroke="#1D1F20" stroke-width="0.666667" stroke-linecap="round" stroke-linejoin="round"/>
</g>
<defs>
<clipPath id="clip0_511_2898">
<rect width="16" height="16" fill="white" transform="translate(0.5 -0.00488281)"/>
</clipPath>
</defs>
</svg>
