<svg width="12" height="13" viewBox="0 0 12 13" fill="none" xmlns="http://www.w3.org/2000/svg">
<path d="M3.21959 6.68026L6.96959 10.4303C7.03877 10.5019 7.12153 10.559 7.21304 10.5983C7.30454 10.6376 7.40295 10.6583 7.50254 10.6592C7.60212 10.6601 7.70088 10.6411 7.79306 10.6034C7.88523 10.5657 7.96897 10.51 8.03939 10.4396C8.10981 10.3691 8.1655 10.2854 8.20321 10.1932C8.24092 10.1011 8.25989 10.0023 8.25903 9.90271C8.25816 9.80312 8.23747 9.70471 8.19817 9.61321C8.15886 9.5217 8.10172 9.43894 8.03009 9.36976L4.81034 6.15001L8.03009 2.93026C8.10172 2.86107 8.15886 2.77832 8.19817 2.68681C8.23747 2.59531 8.25816 2.49689 8.25903 2.39731C8.25989 2.29773 8.24092 2.19897 8.20321 2.10679C8.1655 2.01462 8.10981 1.93088 8.03939 1.86046C7.96897 1.79004 7.88523 1.73435 7.79306 1.69664C7.70088 1.65893 7.60212 1.63996 7.50254 1.64082C7.40295 1.64169 7.30454 1.66238 7.21304 1.70168C7.12153 1.74099 7.03877 1.79813 6.96959 1.86976L3.21959 5.61976C3.07899 5.76041 3 5.95114 3 6.15001C3 6.34888 3.07899 6.53961 3.21959 6.68026Z" fill="#333333"/>
</svg>
