<svg width="9" height="10" viewBox="0 0 9 10" fill="none" xmlns="http://www.w3.org/2000/svg">
<g clip-path="url(#clip0_463_1513)">
<path d="M6.17715 8.00004H1.5375C1.41324 8.00004 1.3125 7.89932 1.3125 7.77504V4.10004C1.3125 3.97578 1.41324 3.87504 1.5375 3.87504H2.57536C2.83881 3.87504 3.08293 3.73682 3.21847 3.51091L4.23488 1.8169C4.45421 1.45137 4.97077 1.41662 5.23706 1.74949C5.36257 1.90639 5.40304 2.11492 5.34529 2.30738L4.96189 3.58539C4.91857 3.72975 5.02669 3.87504 5.1774 3.87504H6.89306C7.38758 3.87504 7.74675 4.34529 7.61663 4.82237L6.90071 7.44737C6.81172 7.77369 6.51536 8.00004 6.17715 8.00004Z" stroke="#E7E6E6" stroke-width="0.666667" stroke-linecap="round"/>
<path d="M2.625 8V3.875" stroke="#E7E6E6" stroke-width="0.666667" stroke-linecap="round" stroke-linejoin="round"/>
</g>
<defs>
<clipPath id="clip0_463_1513">
<rect width="9" height="9" fill="white" transform="translate(0 0.5)"/>
</clipPath>
</defs>
</svg>
