<svg width="12" height="12" viewBox="0 0 12 12" fill="none" xmlns="http://www.w3.org/2000/svg">
<path d="M10.1258 5.02499H1.72578C1.64622 5.02499 1.56991 4.99339 1.51365 4.93713C1.45739 4.88087 1.42578 4.80456 1.42578 4.72499V2.32499C1.42578 2.24543 1.45739 2.16912 1.51365 2.11286C1.56991 2.0566 1.64622 2.02499 1.72578 2.02499H10.1258C10.2053 2.02499 10.2817 2.0566 10.3379 2.11286C10.3942 2.16912 10.4258 2.24543 10.4258 2.32499V4.72499C10.4258 4.76439 10.418 4.8034 10.4029 4.8398C10.3879 4.8762 10.3658 4.90927 10.3379 4.93713C10.3101 4.96498 10.277 4.98708 10.2406 5.00216C10.2042 5.01723 10.1652 5.02499 10.1258 5.02499Z" fill="#333333"/>
<path d="M10.1258 7.425H1.72578C1.64622 7.425 1.56991 7.39339 1.51365 7.33713C1.45739 7.28087 1.42578 7.20456 1.42578 7.125C1.42578 7.04543 1.45739 6.96913 1.51365 6.91287C1.56991 6.8566 1.64622 6.825 1.72578 6.825H10.1258C10.2053 6.825 10.2817 6.8566 10.3379 6.91287C10.3942 6.96913 10.4258 7.04543 10.4258 7.125C10.4258 7.20456 10.3942 7.28087 10.3379 7.33713C10.2817 7.39339 10.2053 7.425 10.1258 7.425Z" fill="#333333"/>
<path d="M10.1258 9.82499H1.72578C1.64622 9.82499 1.56991 9.79338 1.51365 9.73712C1.45739 9.68086 1.42578 9.60456 1.42578 9.52499C1.42578 9.44543 1.45739 9.36912 1.51365 9.31286C1.56991 9.2566 1.64622 9.22499 1.72578 9.22499H10.1258C10.2053 9.22499 10.2817 9.2566 10.3379 9.31286C10.3942 9.36912 10.4258 9.44543 10.4258 9.52499C10.4258 9.60456 10.3942 9.68086 10.3379 9.73712C10.2817 9.79338 10.2053 9.82499 10.1258 9.82499Z" fill="#333333"/>
</svg>
