<svg width="64" height="64" viewBox="0 0 64 64" fill="none" xmlns="http://www.w3.org/2000/svg">
<g id="Frame">
<path id="Vector" d="M18.3796 49.6701L18.3797 49.6699C19.3033 48.6436 19.2202 47.063 18.1939 46.1393C17.1677 45.2157 15.5869 45.2986 14.6632 46.325L14.6367 46.3544L14.6366 46.3546C13.7129 47.3809 13.7961 48.9616 14.8224 49.8853C15.8487 50.8089 17.4294 50.7256 18.353 49.6996L18.3796 49.6701ZM4.32812 38.9333C4.32812 37.2212 5.71605 35.8333 7.42812 35.8333H57.5615C59.2736 35.8333 60.6615 37.2212 60.6615 38.9333V57.0667C60.6615 58.7788 59.2736 60.1667 57.5615 60.1667H7.42812C5.71605 60.1667 4.32812 58.7788 4.32812 57.0667V38.9333Z" stroke="white"/>
<path id="Vector_2" d="M18.3797 17.6698L18.3797 17.6698C19.3034 16.6436 19.2202 15.0628 18.1939 14.1392C17.1676 13.2156 15.5869 13.2987 14.6632 14.325L14.6366 14.3546L14.6366 14.3546C13.7129 15.3809 13.7961 16.9616 14.8224 17.8853C15.8487 18.809 17.4294 18.7257 18.3531 17.6995L18.3797 17.6698ZM4.32812 6.93334C4.32812 5.22125 5.71605 3.83334 7.42812 3.83334H57.5615C59.2736 3.83334 60.6615 5.22127 60.6615 6.93334V25.0667C60.6615 26.7788 59.2736 28.1667 57.5615 28.1667H7.42812C5.71605 28.1667 4.32812 26.7788 4.32812 25.0667V6.93334Z" stroke="white"/>
</g>
</svg>
