<svg width="17" height="17" viewBox="0 0 17 17" fill="none" xmlns="http://www.w3.org/2000/svg">
<g clip-path="url(#clip0_645_5732)">
<path d="M9.7207 14.56V16.56H7.7207V14.56H9.7207ZM13.6697 12.165L15.0847 13.578L13.6707 14.993L12.2557 13.579L13.6697 12.165ZM3.7017 12.095L5.1157 13.51L3.7007 14.923L2.2867 13.509L3.7017 12.095ZM8.7207 4.56C10.9207 4.56 12.7207 6.36 12.7207 8.56C12.7207 10.76 10.9207 12.56 8.7207 12.56C6.5207 12.56 4.7207 10.76 4.7207 8.56C4.7207 6.36 6.5207 4.56 8.7207 4.56ZM16.7207 7.56V9.56H14.7207V7.56H16.7207ZM2.7207 7.56V9.56H0.720703V7.56H2.7207ZM3.7707 2.267L5.1857 3.68L3.7707 5.095L2.3567 3.681L3.7707 2.267ZM13.6007 2.197L15.0147 3.612L13.5997 5.025L12.1857 3.611L13.6007 2.197ZM9.7207 0.559998V2.56H7.7207V0.559998H9.7207Z" fill="#FF9900"/>
</g>
<defs>
<clipPath id="clip0_645_5732">
<rect width="16" height="16" fill="white" transform="translate(0.720703 0.559998)"/>
</clipPath>
</defs>
</svg>
