<svg width="10" height="9" viewBox="0 0 10 9" fill="none" xmlns="http://www.w3.org/2000/svg">
<path d="M8 4.6875C8.10354 4.6875 8.1875 4.60354 8.1875 4.5C8.1875 4.39646 8.10354 4.3125 8 4.3125C7.89646 4.3125 7.8125 4.39646 7.8125 4.5C7.8125 4.60354 7.89646 4.6875 8 4.6875Z" fill="#E7E6E6" stroke="#E7E6E6" stroke-width="1.33333" stroke-linecap="round" stroke-linejoin="round"/>
<path d="M5 4.6875C5.10354 4.6875 5.1875 4.60354 5.1875 4.5C5.1875 4.39646 5.10354 4.3125 5 4.3125C4.89646 4.3125 4.8125 4.39646 4.8125 4.5C4.8125 4.60354 4.89646 4.6875 5 4.6875Z" fill="#E7E6E6" stroke="#E7E6E6" stroke-width="1.33333" stroke-linecap="round" stroke-linejoin="round"/>
<path d="M2 4.6875C2.10355 4.6875 2.1875 4.60354 2.1875 4.5C2.1875 4.39646 2.10355 4.3125 2 4.3125C1.89645 4.3125 1.8125 4.39646 1.8125 4.5C1.8125 4.60354 1.89645 4.6875 2 4.6875Z" fill="#E7E6E6" stroke="#E7E6E6" stroke-width="1.33333" stroke-linecap="round" stroke-linejoin="round"/>
</svg>
