<svg width="10" height="9" viewBox="0 0 10 9" fill="none" xmlns="http://www.w3.org/2000/svg">
<g clip-path="url(#clip0_571_1100)">
<path d="M9.125 1.12365C9.125 1.12365 8.36829 1.57069 7.9475 1.6974C7.72164 1.43771 7.42149 1.25365 7.08762 1.17012C6.75376 1.08658 6.40231 1.10759 6.08079 1.23031C5.75926 1.35304 5.48315 1.57155 5.28987 1.85629C5.09656 2.14103 4.99539 2.47827 5 2.8224V3.1974C4.34097 3.21448 3.68798 3.06832 3.09913 2.77194C2.51028 2.47555 2.00387 2.03813 1.625 1.49865C1.625 1.49865 0.125 4.87366 3.5 6.37366C2.7277 6.89787 1.80768 7.16075 0.875 7.12366C4.25 8.99866 8.375 7.12366 8.375 2.81115C8.37466 2.70669 8.36461 2.60249 8.345 2.4999C8.72773 2.12245 9.125 1.12365 9.125 1.12365Z" stroke="#E7E6E6" stroke-width="0.525" stroke-linecap="round" stroke-linejoin="round"/>
</g>
<defs>
<clipPath id="clip0_571_1100">
<rect width="9" height="9" fill="white" transform="translate(0.5 -0.00512695)"/>
</clipPath>
</defs>
</svg>
