<svg width="55" height="56" viewBox="0 0 55 56" fill="none" xmlns="http://www.w3.org/2000/svg">
<path d="M52.7077 7.8712C52.7077 7.8712 48.0833 10.6031 45.5119 11.3774C44.1316 9.79049 42.2973 8.66569 40.2571 8.15518C38.2168 7.64469 36.069 7.77309 34.1042 8.52306C32.1393 9.27303 30.4519 10.6084 29.2708 12.3484C28.0895 14.0886 27.4712 16.1495 27.4993 18.2524V20.5441C23.472 20.6485 19.4814 19.7553 15.8829 17.9441C12.2844 16.1328 9.18967 13.4597 6.87435 10.1629C6.87435 10.1629 -2.29232 30.788 18.3327 39.9546C13.6131 43.1581 7.99076 44.7646 2.29102 44.538C22.916 55.9963 48.1244 44.538 48.1244 18.1837C48.1223 17.5454 48.0609 16.9086 47.941 16.2816C50.2799 13.975 52.7077 7.8712 52.7077 7.8712Z" stroke="#E7E6E6" stroke-width="1.33333" stroke-linecap="round" stroke-linejoin="round"/>
</svg>
