<svg width="30" height="30" viewBox="0 0 30 30" fill="none" xmlns="http://www.w3.org/2000/svg">
<g id="User icon">
<path id="Vector" d="M15 2.5C8.09644 2.5 2.5 8.09644 2.5 15C2.5 21.9035 8.09644 27.5 15 27.5C21.9035 27.5 27.5 21.9035 27.5 15C27.5 8.09644 21.9035 2.5 15 2.5Z" stroke="#FFFBFB" stroke-width="0.583333" stroke-linecap="round" stroke-linejoin="round"/>
<path id="Vector_2" d="M5.33789 22.9321C5.33789 22.9321 8.12417 19.375 14.9991 19.375C21.8741 19.375 24.6605 22.9321 24.6605 22.9321" stroke="#FFFBFB" stroke-width="0.583333" stroke-linecap="round" stroke-linejoin="round"/>
<path id="Vector_3" d="M15 15C17.0711 15 18.75 13.3211 18.75 11.25C18.75 9.17894 17.0711 7.5 15 7.5C12.9289 7.5 11.25 9.17894 11.25 11.25C11.25 13.3211 12.9289 15 15 15Z" stroke="#FFFBFB" stroke-width="0.583333" stroke-linecap="round" stroke-linejoin="round"/>
</g>
</svg>
