<svg width="17" height="16" viewBox="0 0 17 16" fill="none" xmlns="http://www.w3.org/2000/svg">
<g clip-path="url(#clip0_511_2583)">
<path d="M9.83333 7.9952L7.5 9.32853V6.66187L9.83333 7.9952Z" fill="#1D1F20" stroke="#E7E6E6" stroke-width="0.666667" stroke-linecap="round" stroke-linejoin="round"/>
<path d="M1.83398 8.46679V7.52339C1.83398 5.59315 1.83398 4.62805 2.43764 4.00707C3.04131 3.38609 3.99169 3.35921 5.89244 3.30545C6.79314 3.27997 7.71318 3.26172 8.50065 3.26172C9.28812 3.26172 10.2082 3.27997 11.1089 3.30545C13.0096 3.35921 13.96 3.38609 14.5637 4.00707C15.1673 4.62805 15.1673 5.59315 15.1673 7.52339V8.46679C15.1673 10.397 15.1673 11.3621 14.5637 11.9831C13.96 12.6041 13.0097 12.6309 11.1089 12.6847C10.2082 12.7102 9.28812 12.7285 8.50065 12.7285C7.71318 12.7285 6.7931 12.7102 5.89238 12.6847C3.99166 12.6309 3.0413 12.6041 2.43764 11.9831C1.83398 11.3621 1.83398 10.397 1.83398 8.46679Z" stroke="#E7E6E6" stroke-width="0.666667"/>
</g>
<defs>
<clipPath id="clip0_511_2583">
<rect width="16" height="16" fill="white" transform="translate(0.5 -0.00488281)"/>
</clipPath>
</defs>
</svg>
