<svg width="64" height="65" viewBox="0 0 64 65" fill="none" xmlns="http://www.w3.org/2000/svg">
<path d="M37.3333 32.9466L28 38.2799V27.6133L37.3333 32.9466Z" fill="#E7E6E6" stroke="#E7E6E6" stroke-width="1.33333" stroke-linecap="round" stroke-linejoin="round"/>
<path d="M5.33398 34.8332V31.0596C5.33398 23.3387 5.33398 19.4782 7.74862 16.9943C10.1633 14.5104 13.9648 14.4029 21.5678 14.1878C25.1706 14.086 28.8508 14.0129 32.0007 14.0129C35.1505 14.0129 38.8308 14.086 42.4335 14.1878C50.0364 14.4029 53.838 14.5104 56.2527 16.9943C58.6673 19.4782 58.6673 23.3387 58.6673 31.0596V34.8332C58.6673 42.554 58.6673 46.4145 56.2527 48.8983C53.838 51.3823 50.0367 51.4897 42.4337 51.7049C38.8308 51.8068 35.1505 51.8799 32.0007 51.8799C28.8508 51.8799 25.1704 51.8068 21.5676 51.7049C13.9647 51.4897 10.1632 51.3823 7.7486 48.8983C5.33398 46.4145 5.33398 42.554 5.33398 34.8332Z" stroke="#E7E6E6" stroke-width="1.33333"/>
</svg>
